# xmcd
#
# Track frame offsets:
#	150
#	15126
#	27041
#	45671
#	59780
#	72583
#	89081
#	100776
#	112314
#	127398
#
# Disc length: 1856 seconds
#
# Revision: 0
# Processed by: cddbd v1.5.1PL2 Copyright (c) Steve Scherf et al.
# Submitted via: dBpowerAMP V4.0
#
DISCID=92073e0a
DTITLE=Various Artist - Real Women Of Country #1 Hits
DYEAR=2006
DGENRE=Country
TTITLE0=Jeanne Pruett - Satin Sheets
TTITLE1=Donna Fargo - The Happiest Girl In The Whole USA
TTITLE2=Juice Newton - The Sweetest Thing
TTITLE3=Barbara Fairchield - Teddy Bear Song
TTITLE4=Holly Dunn - You Really Had Me Going
TTITLE5=Janie Fricke - It Ain't Easy Bein' Easy
TTITLE6=Holly Dunn - Are You Ever Gonna Love Me
TTITLE7=Kitty Wells - Heartbreak , U.S.A.
TTITLE8=Donna Fargo - That Was Yesterday
TTITLE9=Lynn Anderson - How Can I Unlove You
EXTD=Very Neat Vintage Country.
EXTT0=
EXTT1=
EXTT2=
EXTT3=
EXTT4=
EXTT5=
EXTT6=
EXTT7=
EXTT8=
EXTT9=
PLAYORDER=
